<?xml version="1.0" encoding="utf-8"?>
<!-- Generator: Adobe Illustrator 17.0.0, SVG Export Plug-In . SVG Version: 6.00 Build 0)  -->
<!DOCTYPE svg PUBLIC "-//W3C//DTD SVG 1.1//EN" "http://www.w3.org/Graphics/SVG/1.1/DTD/svg11.dtd">
<svg version="1.1" id="Layer_1" xmlns="http://www.w3.org/2000/svg" xmlns:xlink="http://www.w3.org/1999/xlink" x="0px" y="0px"
	 width="500px" height="320px" viewBox="0 0 500 320" enable-background="new 0 0 500 320" xml:space="preserve">
<g>
	<path fill="#FF6600" d="M443.155,101.569h-15.309H72.155c-33.821,0-61.238,27.417-61.238,61.238v40.315
		c0,33.821,27.417,61.238,61.238,61.238h355.691c33.821,0,61.238-27.417,61.238-61.238v-36.232v-4.083V55.64
		C489.083,81.006,468.52,101.569,443.155,101.569z"/>
	<g>
		<path fill="#FFFFFF" d="M276.39,218.623c-0.265,0.509-0.627,0.77-1.205,0.77c-0.265,0-0.902-0.351-1.126-0.48
			c-0.763-0.44-1.585-0.661-2.464-0.661c-0.945,0-1.745,0.457-2.401,1.113c-0.685,0.684-1.194,1.496-1.517,2.411l-0.323,0.911h2.68
			l0.204-0.303c0.291-0.44,0.68-0.833,1.241-0.833c0.26,0,0.945,0.359,1.168,0.48c0.69,0.386,1.456,0.656,2.26,0.656
			c2.05,0,3.283-1.779,4.018-3.48l0.415-0.955h-2.758L276.39,218.623z M274.238,223.308c-1.803,0-3.43,0.465-4.737,1.552
			c-0.073-0.403-0.152-0.78-0.192-0.989l-0.126-0.683l-4.133,0.806l0.197,0.714c0.223,0.782,0.283,1.632,0.283,2.443
			c0,0.284-0.011,0.575-0.06,0.856l-1.845,10.404l-0.433,2.439h0.433h3.805l2.123-12.177c0.425-0.46,0.953-0.824,1.507-1.108
			c0.561-0.288,1.204-0.522,1.842-0.522c1.318,0,1.945,0.494,1.945,1.84c0,0.633-0.102,1.304-0.215,1.926l-1.803,10.041h4.388
			l1.805-10.396c0.118-0.683,0.199-1.38,0.199-2.073C279.221,225.12,277.526,223.308,274.238,223.308z M264.059,227.875
			c0-0.721-0.139-1.385-0.433-1.973c-0.278-0.562-0.696-1.049-1.257-1.458c-1.21-0.864-2.708-1.135-4.165-1.135
			c-0.501,0-0.989,0.033-1.461,0.096c-2.136,0.29-3.999,1.241-5.538,2.896c-1.894,2.037-2.758,4.507-2.758,7.284
			c0,4.574,2.007,7.565,6.82,7.565c0.491,0,0.981-0.036,1.475-0.108c1-0.139,3.091-0.575,4.033-0.886l0.42-0.142l-0.162-4.359
			l-0.583,0.422c-0.777,0.567-2.753,1.178-3.708,1.296c-0.168,0.021-0.341,0.035-0.512,0.035c-0.937,0-1.9-0.19-2.592-0.861
			c-0.69-0.662-0.89-1.593-0.89-2.517c0-0.121,0.003-0.242,0.01-0.363c0.968,0.35,2.011,0.484,3.039,0.484
			c0.317,0,0.632-0.012,0.945-0.032c1.719-0.124,3.372-0.596,4.823-1.585c0.963-0.653,1.653-1.464,2.06-2.425
			C263.912,229.434,264.059,228.689,264.059,227.875z M258.807,229.764c-0.627,0.324-1.341,0.501-2.065,0.593
			c-0.473,0.058-0.948,0.082-1.404,0.082c-0.588,0-1.186-0.06-1.756-0.224c0.669-1.508,1.659-2.608,3.16-3.007
			c0.404-0.108,0.845-0.165,1.322-0.165c0.853,0,1.837,0.102,1.837,1.146C259.902,228.96,259.474,229.424,258.807,229.764z
			 M439.266,223.308c-1.803,0-3.434,0.465-4.737,1.552c-0.075-0.403-0.154-0.78-0.194-0.989l-0.123-0.683l-4.134,0.806l0.198,0.714
			c0.217,0.782,0.282,1.632,0.282,2.443c0,0.284-0.012,0.575-0.061,0.856l-2.182,12.321l-0.092,0.522h0.092h4.144l2.122-12.177
			c0.422-0.46,0.954-0.824,1.507-1.108c0.559-0.288,1.202-0.522,1.842-0.522c1.315,0,1.94,0.494,1.94,1.84
			c0,0.633-0.1,1.304-0.209,1.926l-1.803,10.041h4.388l1.803-10.396c0.121-0.683,0.202-1.38,0.202-2.073
			C444.249,225.12,442.552,223.308,439.266,223.308z M241.469,227.492c0.457-0.321,0.976-0.449,1.528-0.449
			c1.036,0,1.913,0.465,2.663,1.154l0.68,0.628l1.968-4.075l-0.643-0.29c-1.36-0.609-2.958-1.152-4.459-1.152
			c-1.698,0-3.301,0.431-4.65,1.486c-1.32,1.034-1.984,2.412-1.984,4.088c0,0.757,0.199,1.469,0.575,2.129
			c0.407,0.706,1.002,1.241,1.703,1.64l2.092,1.16c0.438,0.252,1.047,0.617,1.396,0.998c0.176,0.186,0.271,0.386,0.271,0.643
			c0,0.568-0.169,1.031-0.612,1.398c-0.501,0.415-1.105,0.557-1.742,0.557c-0.517,0-1.11-0.215-1.572-0.421
			c-0.509-0.228-1.063-0.532-1.464-0.926l-0.646-0.636l-2.212,4.023l0.546,0.347c1.477,0.931,3.118,1.354,4.857,1.354
			c1.864,0,3.648-0.451,5.118-1.632c1.446-1.163,2.104-2.732,2.104-4.565c0-0.762-0.186-1.473-0.566-2.13
			c-0.404-0.692-1.002-1.212-1.706-1.59l-2.073-1.125c-0.444-0.239-1.071-0.593-1.414-0.964c-0.189-0.199-0.273-0.43-0.273-0.7
			C240.952,228.024,241.13,227.731,241.469,227.492z M209.418,217.78h-2.934l-2.847,14.396c-0.493,2.459-0.74,4.047-0.74,4.756
			c0,2.353,1.585,3.532,4.758,3.532l0.328-2.082c-1.417,0-2.121-0.601-2.121-1.805c0-0.714,0.278-2.469,0.848-5.28L209.418,217.78z
			 M224.566,225.282c-1.107-0.86-2.934-1.288-5.487-1.288c-0.672,0-1.312,0.068-1.924,0.207c-1.842,0.422-3.406,1.475-4.695,3.163
			c-1.716,2.251-2.569,4.828-2.569,7.733c0,1.73,0.436,3.055,1.31,3.981c0.876,0.922,2.097,1.386,3.653,1.386
			c0.8,0,1.566-0.108,2.301-0.318c0.207-0.061,0.415-0.129,0.619-0.207c0.921-0.354,1.614-0.811,2.073-1.372
			c0.184,0.751,0.349,1.281,0.509,1.6h2.874c-0.48-1.314-0.724-2.744-0.724-4.284c0-0.534,0.042-0.989,0.118-1.363L224.566,225.282z
			 M220.223,232.751c-0.338,1.585-0.934,2.878-1.795,3.891c-0.412,0.486-0.835,0.853-1.273,1.105
			c-0.478,0.276-0.974,0.415-1.483,0.415c-1.881,0-2.816-1.052-2.816-3.158c0-2.491,0.59-4.563,1.774-6.228
			c0.766-1.065,1.608-1.79,2.524-2.17c0.509-0.212,1.042-0.317,1.601-0.317c1.527,0,2.43,0.209,2.698,0.637L220.223,232.751z
			 M375.007,223.994c-2.272,0-4.012,0.783-5.214,2.356c0.008-0.129-0.123-0.918-0.386-2.356l-2.729,0.53
			c0.207,0.743,0.309,1.619,0.309,2.627c0,0.373-0.027,0.699-0.075,0.977l-2.131,12.039h2.842l2.062-11.8
			c0.455-0.543,1.064-1.014,1.832-1.41c0.76-0.394,1.484-0.595,2.155-0.595c1.749,0,2.627,0.839,2.627,2.521
			c0,0.545-0.075,1.231-0.225,2.047l-1.657,9.237h2.994l1.705-9.827c0.127-0.725,0.192-1.378,0.192-1.958
			C379.309,225.455,377.874,223.994,375.007,223.994z M399.464,226.934c0.54-0.378,1.177-0.572,1.922-0.572
			c1.114,0,2.16,0.445,3.126,1.335l1.262-2.614c-1.632-0.726-3.028-1.089-4.18-1.089c-1.669,0-3.082,0.444-4.225,1.341
			c-1.146,0.895-1.722,2.073-1.722,3.548c0,0.63,0.163,1.231,0.482,1.79c0.323,0.557,0.805,1.018,1.448,1.383l2.089,1.158
			c0.739,0.425,1.26,0.801,1.563,1.128c0.305,0.325,0.449,0.693,0.449,1.111c0,0.813-0.28,1.448-0.858,1.926
			c-0.572,0.474-1.296,0.713-2.176,0.713c-0.517,0-1.133-0.162-1.853-0.48c-0.726-0.325-1.275-0.68-1.663-1.063l-1.014,1.838
			l-0.455,0.828c0.148,0.095,0.303,0.184,0.455,0.265c1.214,0.66,2.558,0.985,4.04,0.985c1.897,0,3.46-0.493,4.689-1.48
			c1.231-0.995,1.847-2.333,1.847-4.033c0-0.643-0.158-1.237-0.476-1.786c-0.315-0.54-0.793-0.986-1.434-1.327l-2.078-1.129
			c-0.751-0.406-1.279-0.771-1.588-1.102c-0.305-0.323-0.457-0.716-0.457-1.165C398.658,227.82,398.928,227.314,399.464,226.934z
			 M355.462,225.002c-0.937-0.674-2.195-1.008-3.764-1.008c-0.54,0-1.06,0.036-1.567,0.115c-1.922,0.305-3.566,1.189-4.931,2.656
			c-1.715,1.848-2.573,4.121-2.573,6.819c0,4.584,2.602,6.88,6.137,6.88c2.456,0,3.624-0.677,5.335-1.528l-0.39-2.475
			c-1.045,0.76-2.543,1.526-3.578,1.612c-0.134,0.01-0.269,0.018-0.403,0.018c-1.317,0-2.341-0.349-3.069-1.052
			c-0.732-0.706-1.098-1.706-1.098-3.01c0-0.436,0.044-0.893,0.133-1.365c0.974,0.536,2.18,0.804,3.601,0.804
			c0.286,0,0.568-0.011,0.837-0.029c1.767-0.116,3.278-0.609,4.547-1.47c1.465-0.997,2.193-2.362,2.193-4.094
			C356.872,226.628,356.401,225.674,355.462,225.002z M352.615,230.373c-0.686,0.355-1.511,0.584-2.483,0.686
			c-0.403,0.039-0.839,0.065-1.298,0.065c-1.014,0-1.901-0.167-2.65-0.507c0.822-2.272,2.141-3.634,3.948-4.09
			c0.449-0.11,0.927-0.165,1.431-0.165c1.682,0,2.519,0.611,2.519,1.828C354.082,229.146,353.596,229.872,352.615,230.373z
			 M394.114,233.319c0.305-1.14,0.457-2.247,0.457-3.326c0-1.045-0.152-1.961-0.457-2.748c-0.254-0.653-0.609-1.217-1.07-1.69
			c-1.018-1.041-2.491-1.561-4.421-1.561c-0.497,0-0.977,0.036-1.446,0.115c-1.92,0.318-3.547,1.289-4.883,2.919
			c-1.657,2.032-2.487,4.461-2.487,7.298c0,1.944,0.501,3.456,1.525,4.527c1.018,1.075,2.479,1.611,4.388,1.611
			c0.507,0,0.993-0.036,1.457-0.113c1.315-0.209,2.481-0.718,3.503-1.519c1.375-1.089,2.373-2.451,2.978-4.092
			C393.838,234.263,393.989,233.787,394.114,233.319z M390.112,235.734c-0.768,1.263-1.742,2.034-2.934,2.312
			c-0.332,0.077-0.678,0.116-1.045,0.116c-2.245,0-3.362-1.336-3.362-4.012c0-1.09,0.19-2.268,0.574-3.533
			c0.386-1.264,1.016-2.303,1.878-3.111c0.591-0.551,1.242-0.92,1.955-1.093c0.336-0.081,0.685-0.123,1.048-0.123
			c2.243,0,3.364,1.275,3.364,3.825C391.591,232.241,391.099,234.114,390.112,235.734z M296.246,225.004l-0.337-0.262
			c-1.561-1.21-3.999-1.434-5.904-1.434c-0.687,0-1.341,0.066-1.961,0.203c-2.086,0.444-3.818,1.62-5.204,3.438
			c-1.829,2.396-2.713,5.133-2.713,8.148c0,1.611,0.357,3.247,1.501,4.453c1.1,1.16,2.578,1.599,4.149,1.599
			c0.772,0,1.527-0.091,2.267-0.283c0.302-0.079,0.604-0.173,0.898-0.286c0.512-0.197,1.013-0.445,1.464-0.76
			c0.076,0.23,0.16,0.451,0.26,0.647l0.186,0.384h4.28l-0.338-0.919c-0.475-1.301-0.683-2.666-0.683-4.049
			c0-0.401,0.021-0.83,0.105-1.221L296.246,225.004z M290.477,232.612c-0.276,1.304-0.777,2.564-1.648,3.59
			c-0.233,0.273-0.496,0.539-0.785,0.754c-0.422,0.311-0.905,0.524-1.451,0.524c-1.638,0-2.128-0.934-2.128-2.475
			c0-2.072,0.425-4.117,1.645-5.825c0.53-0.742,1.163-1.401,1.934-1.8c0.486-0.255,1.029-0.404,1.635-0.404
			c0.3,0,1.457,0.026,1.945,0.215L290.477,232.612z M337.473,234.073c-0.2,1.097-0.787,2.039-1.759,2.827
			c-0.976,0.798-1.989,1.192-3.044,1.192c-1.721,0-2.583-0.825-2.583-2.474c0-0.371,0.042-0.772,0.119-1.205l1.855-10.127h-2.965
			l-1.843,10.425L327.207,235c-0.067,0.441-0.1,0.861-0.1,1.255c0,0.417,0.033,0.803,0.1,1.16c0.15,0.795,0.463,1.446,0.939,1.952
			c0.689,0.73,1.653,1.097,2.892,1.097c2.729,0,4.645-0.843,5.749-2.535l-0.415,2.237h2.963l2.907-15.881h-2.965L337.473,234.073z
			 M428.407,223.603h-0.092h-4.261l-1.911,10.348c-0.182,1.002-0.732,1.784-1.515,2.42c-0.76,0.619-1.621,1.037-2.615,1.037
			c-1.287,0-1.895-0.475-1.895-1.79c0-0.363,0.042-0.73,0.106-1.085l2.001-10.929h-4.359l-1.943,10.988
			c-0.092,0.548-0.156,1.107-0.156,1.664c0,1.306,0.307,2.606,1.223,3.579c0.906,0.952,2.105,1.314,3.393,1.314
			c1.684,0,3.343-0.31,4.676-1.192l-0.165,0.893h4.359l3.063-16.741L428.407,223.603z M301.585,231.437l2.877-14.339h-4.33
			l-2.96,14.945c-0.202,1.015-0.402,2.038-0.556,3.062c-0.093,0.58-0.195,1.242-0.195,1.827c0,3.243,2.591,4.217,5.44,4.217h0.586
			l0.543-3.448h-0.799c-0.864,0-1.438-0.184-1.438-1.123c0-0.543,0.115-1.21,0.2-1.743
			C301.137,233.696,301.357,232.562,301.585,231.437z M325.396,223.379c-0.614,0.215-1.444,1.222-1.552,2.151
			c-1-1.002-1.82-1.536-3.226-1.536c-0.568,0-1.118,0.048-1.646,0.136c-1.957,0.342-3.618,1.313-4.972,2.924
			c-1.724,2.039-2.59,4.529-2.59,7.466c0,1.608,0.543,3.004,1.619,4.181c1.077,1.173,2.433,1.764,4.073,1.764
			c0.686,0,1.308-0.053,1.87-0.153c1.029-0.189,1.857-0.546,2.479-1.08l-1.436,8.144l2.827-0.983l3.282-18.681
			c0.154-0.906,0.348-2.32,1.185-2.775C326.625,224.408,325.396,223.379,325.396,223.379z M322.831,231.306
			c-0.307,1.536-0.603,3.247-1.014,5.561c-5.807,2.919-8.972-0.83-7.62-5.386c0.62-2.208,2.673-4.63,5.039-4.883
			C323.199,226.329,323.322,228.756,322.831,231.306z M461.088,225.984c-0.278-0.562-0.695-1.049-1.258-1.458
			c-1.21-0.864-2.708-1.135-4.163-1.135c-0.501,0-0.989,0.033-1.461,0.096c-2.137,0.29-4,1.241-5.538,2.896
			c-1.895,2.037-2.758,4.507-2.758,7.284c0,4.574,2.007,7.565,6.821,7.565c0.49,0,0.981-0.036,1.475-0.108
			c0.999-0.139,3.09-0.575,4.033-0.886l0.421-0.142l-0.163-4.359l-0.582,0.422c-0.778,0.567-2.754,1.178-3.708,1.296
			c-0.169,0.021-0.342,0.035-0.513,0.035c-0.937,0-1.899-0.19-2.592-0.861c-0.691-0.661-0.889-1.593-0.889-2.516
			c0-0.121,0.002-0.242,0.01-0.363c0.968,0.35,2.011,0.484,3.04,0.484c0.317,0,0.632-0.012,0.945-0.032
			c1.719-0.124,3.372-0.596,4.822-1.585c0.964-0.653,1.653-1.464,2.06-2.425c0.286-0.674,0.434-1.419,0.434-2.233
			C461.522,227.236,461.382,226.573,461.088,225.984z M456.27,229.847c-0.628,0.324-1.34,0.501-2.064,0.593
			c-0.474,0.058-0.949,0.082-1.406,0.082c-0.588,0-1.185-0.06-1.755-0.224c0.67-1.508,1.659-2.608,3.161-3.007
			c0.403-0.108,0.845-0.165,1.321-0.165c0.853,0,1.838,0.102,1.838,1.146C457.365,229.042,456.937,229.507,456.27,229.847z"/>
		<path fill="#FFFFFF" d="M256.217,145.873l-9.163,56.418h17.402l9.165-56.418h-8.703H256.217z M395.97,146.216
			c-6.702,0.93-13.496,3.726-18.919,8.327c-9.123,8.64-13.699,22.114-8.358,33.755c6.305,11.08,17.339,14.238,27.277,13.962
			c7.067-0.196,13.58-2.123,17.434-4.174l1.857-12.144c-4.867,2.35-12.659,4.339-19.291,3.949
			c-7.248-0.425-13.126-3.685-12.329-12.406h12.329h6.719h19.162c0.653-4.388,1.42-8.753,1.621-13.235
			C422.822,150.155,409.578,144.333,395.97,146.216z M406.508,166.071l-0.057,1.28H395.97h-10.563l0.298-1.174
			c1.251-4.934,5.758-8.389,10.265-9.369C401.455,155.608,406.938,158.094,406.508,166.071z M89.841,146.351
			c-10.685-7.489-31.782-1.974-43.279,3.615l-8.898,52.321h17.303l6.879-41.147c3.614-2.833,10.563-4.008,14.463-1.096
			c2.086,2.099,1.801,4.57,1.659,7.205l-5.745,35.039H89.74l6.672-41.195l0.006-0.045c3.614-2.837,10.564-4.01,14.463-1.1
			c2.212,1.864,1.918,5.495,1.659,7.203l-5.698,35.044h17.469l6.142-36.844C135.405,138.679,105.984,140.943,89.841,146.351z
			 M234.322,145.873c-5.738,12.464-11.67,24.847-17.408,37.313c-1.798-12.437-3.627-24.867-5.283-37.313h-18.341
			c3.37,18.823,7.076,37.623,10.71,56.418h19.047c9.647-18.84,19.43-37.615,29.146-56.418H234.322z M452.791,190.039
			c-7.919,0-6.242-7.788-5.483-13.791l3.146-21.474h8.289l1.932-13.095h-8.294l2.622-17.284l-17.727,4.334l-8.033,54.329
			c-4.023,22.1,16.87,21.672,30.82,18.504l1.937-13.27C459.1,189.232,456.898,189.642,452.791,190.039z M312.054,149.803
			l-8.902,52.324h17.305l6.878-41.15c3.615-2.833,10.568-4.008,14.466-1.095c2.694,2.718,1.661,7.156,1.296,10.641l-5.339,31.604
			h17.474l6.141-36.843C365.689,138.669,328.537,141.791,312.054,149.803z M266.738,122.978c-4.837,0-8.763,3.651-8.763,8.164
			c0,4.509,3.926,8.164,8.763,8.164c4.844,0,8.77-3.655,8.77-8.164C275.508,126.629,271.582,122.978,266.738,122.978z
			 M290.623,123.924l-12.79,78.219h17.521l12.671-78.219H290.623z M166.063,145.903c-16.016,0-30.543,12.625-32.446,28.197
			c-1.903,15.572,9.538,28.197,25.554,28.197c16.016,0,30.543-12.625,32.446-28.197C193.52,158.527,182.078,145.903,166.063,145.903
			z M175.313,174.099c-1.805,9.27-8.951,16.786-15.963,16.786c-7.012,0-11.235-7.516-9.43-16.786
			c1.805-9.269,8.951-16.785,15.963-16.785C172.895,157.314,177.119,164.83,175.313,174.099z"/>
	</g>
</g>
<g>
</g>
<g>
</g>
<g>
</g>
<g>
</g>
<g>
</g>
<g>
</g>
</svg>
